<?xml version="1.0" encoding="UTF-8" standalone="no"?>
<!-- Created with Inkscape (http://www.inkscape.org/) -->

<svg
   xmlns:dc="http://purl.org/dc/elements/1.1/"
   xmlns:cc="http://creativecommons.org/ns#"
   xmlns:rdf="http://www.w3.org/1999/02/22-rdf-syntax-ns#"
   xmlns:svg="http://www.w3.org/2000/svg"
   xmlns="http://www.w3.org/2000/svg"
   xmlns:sodipodi="http://sodipodi.sourceforge.net/DTD/sodipodi-0.dtd"
   xmlns:inkscape="http://www.inkscape.org/namespaces/inkscape"
   width="247"
   height="128"
   id="svg3166"
   version="1.1"
   inkscape:version="0.48.1 r9760"
   sodipodi:docname="New document 10">
  <defs
     id="defs3168" />
  <sodipodi:namedview
     id="base"
     pagecolor="#ffffff"
     bordercolor="#666666"
     borderopacity="1.0"
     inkscape:pageopacity="0.0"
     inkscape:pageshadow="2"
     inkscape:zoom="32"
     inkscape:cx="125.50877"
     inkscape:cy="22.00552"
     inkscape:document-units="px"
     inkscape:current-layer="layer1"
     showgrid="false"
     inkscape:window-width="1440"
     inkscape:window-height="880"
     inkscape:window-x="-3"
     inkscape:window-y="0"
     inkscape:window-maximized="1" />
  <metadata
     id="metadata3171">
    <rdf:RDF>
      <cc:Work
         rdf:about="">
        <dc:format>image/svg+xml</dc:format>
        <dc:type
           rdf:resource="http://purl.org/dc/dcmitype/StillImage" />
        <dc:title></dc:title>
      </cc:Work>
    </rdf:RDF>
  </metadata>
  <g
     inkscape:label="Layer 1"
     inkscape:groupmode="layer"
     id="layer1"
     transform="translate(0,-924.36218)">
    <g
       id="g3201">
      <path
         style="fill:#b3b3b3"
         d="M 21.9375 0 L 0 21.9375 L 0 106.0625 L 21.9375 128 L 106.0625 128 L 128 106.0625 L 128 100.21875 L 118.9375 100.21875 L 100.15625 119 L 27.84375 119 L 9 100.15625 L 9 27.84375 L 27.84375 9 L 100.15625 9 L 119 27.84375 L 128 27.84375 L 128 21.9375 L 106.0625 0 L 21.9375 0 z "
         transform="translate(0,924.36218)"
         id="rect2996-2" />
      <path
         style="fill:#b3b3b3"
         d="M 140.9375 0 L 119 21.9375 L 119 27.875 L 119.03125 27.875 L 119.03125 27.75 L 127.96875 27.75 L 127.96875 27.875 L 128 27.875 L 128 27.84375 L 146.84375 9 L 219.15625 9 L 238 27.84375 L 238 100.15625 L 219.15625 119 L 146.84375 119 L 128 100.15625 L 119 100.15625 L 119 106.0625 L 140.9375 128 L 225.0625 128 L 247 106.0625 L 247 21.9375 L 225.0625 0 L 140.9375 0 z "
         transform="translate(0,924.36218)"
         id="rect2996-2-2" />
    </g>
  </g>
</svg>
