<?xml version="1.0" encoding="UTF-8" standalone="no"?>
<!-- Created with Inkscape (http://www.inkscape.org/) -->

<svg
   xmlns:dc="http://purl.org/dc/elements/1.1/"
   xmlns:cc="http://creativecommons.org/ns#"
   xmlns:rdf="http://www.w3.org/1999/02/22-rdf-syntax-ns#"
   xmlns:svg="http://www.w3.org/2000/svg"
   xmlns="http://www.w3.org/2000/svg"
   xmlns:sodipodi="http://sodipodi.sourceforge.net/DTD/sodipodi-0.dtd"
   xmlns:inkscape="http://www.inkscape.org/namespaces/inkscape"
   width="366"
   height="128"
   id="svg3275"
   version="1.1"
   inkscape:version="0.48.1 r9760"
   sodipodi:docname="socketTriple.svg">
  <defs
     id="defs3277" />
  <sodipodi:namedview
     id="base"
     pagecolor="#ffffff"
     bordercolor="#666666"
     borderopacity="1.0"
     inkscape:pageopacity="0.0"
     inkscape:pageshadow="2"
     inkscape:zoom="1.4"
     inkscape:cx="237.31984"
     inkscape:cy="140.30846"
     inkscape:document-units="px"
     inkscape:current-layer="layer1"
     showgrid="false"
     inkscape:window-width="1440"
     inkscape:window-height="880"
     inkscape:window-x="-3"
     inkscape:window-y="0"
     inkscape:window-maximized="1" />
  <metadata
     id="metadata3280">
    <rdf:RDF>
      <cc:Work
         rdf:about="">
        <dc:format>image/svg+xml</dc:format>
        <dc:type
           rdf:resource="http://purl.org/dc/dcmitype/StillImage" />
        <dc:title></dc:title>
      </cc:Work>
    </rdf:RDF>
  </metadata>
  <g
     inkscape:label="Layer 1"
     inkscape:groupmode="layer"
     id="layer1"
     transform="translate(0,-924.36218)">
    <g
       id="g3201">
      <path
         inkscape:connector-curvature="0"
         style="fill:#b3b3b3"
         d="M 21.9375,0 0,21.9375 0,106.0625 21.9375,128 l 84.125,0 21.9375,-21.9375 0,-5.84375 -9.0625,0 L 100.15625,119 27.84375,119 9,100.15625 9,27.84375 27.84375,9 100.15625,9 119,27.84375 l 9,0 0,-5.90625 L 106.0625,0 21.9375,0 z"
         transform="translate(0,924.36218)"
         id="rect2996-2" />
      <path
         style="fill:#b3b3b3"
         d="M 140.9375 0 L 119 21.9375 L 119 27.875 L 119.03125 27.875 L 119.03125 27.75 L 127.96875 27.75 L 127.96875 27.875 L 128 27.875 L 128 27.84375 L 146.84375 9 L 219.15625 9 L 238 27.84375 L 247 27.84375 L 247 21.9375 L 225.0625 0 L 140.9375 0 z M 119 100.15625 L 119 106.0625 L 140.9375 128 L 225.0625 128 L 247 106.0625 L 247 100.15625 L 238 100.15625 L 219.15625 119 L 146.84375 119 L 128 100.15625 L 119 100.15625 z "
         transform="translate(0,924.36218)"
         id="rect2996-2-2" />
    </g>
    <path
       inkscape:connector-curvature="0"
       style="fill:#b3b3b3"
       d="M 259.9375,924.362 238,946.2995 l 0,5.9375 0.0312,0 0,-0.125 8.9375,0 0,0.125 0.0312,0 0,-0.031 18.84385,-18.84375 72.3125,0 L 357,952.206 l 0,72.3125 -18.84375,18.8438 -72.3125,0 L 247,1024.5184 l -9,0 0,5.9063 21.9375,21.9375 84.125,0 21.9375,-21.9375 0,-84.125 -21.9375,-21.9375 -84.125,0 z"
       id="rect2996-2-2-7" />
  </g>
</svg>
